<?xml version="1.0" encoding="iso-8859-1"?>
<!-- Generator: Adobe Illustrator 27.0.0, SVG Export Plug-In . SVG Version: 6.00 Build 0)  -->
<svg version="1.1" id="a" xmlns="http://www.w3.org/2000/svg" xmlns:xlink="http://www.w3.org/1999/xlink" x="0px" y="0px"
	 viewBox="0 0 128 128" style="enable-background:new 0 0 128 128;" xml:space="preserve">
<g>
	<circle style="fill:#00A0E9;" cx="32.361" cy="22.01" r="6.72"/>
	<path style="fill:#00A0E9;" d="M48.051,39.15v30.16c0,1.58-1.27,2.85-2.85,2.85l0,0c-1.57,0-2.85-1.27-2.85-2.85V41.68
		c0-0.28-0.22-0.51-0.51-0.51l0,0c-0.28,0-0.51,0.23-0.51,0.51v68.36c0,2.19-1.77,3.96-3.96,3.96c-1.1,0-2.09-0.44-2.8-1.16
		c-0.72-0.71-1.16-1.71-1.16-2.8V70.01c0-0.58-0.47-1.04-1.04-1.04c-0.57,0-1.04,0.47-1.04,1.04v40.03c0,2.19-1.77,3.96-3.96,3.96
		c-1.1,0-2.09-0.44-2.8-1.16c-0.72-0.71-1.16-1.71-1.16-2.8V41.68c0-0.28-0.23-0.51-0.51-0.51c-0.28,0-0.51,0.23-0.51,0.51v27.64
		c0,1.57-1.27,2.85-2.85,2.85c-0.79,0-1.5-0.32-2.02-0.83c-0.51-0.52-0.83-1.23-0.83-2.02V39.15c0-4.83,3.91-8.74,8.74-8.74h13.88
		C44.141,30.41,48.051,34.32,48.051,39.15z"/>
</g>
<g>
	<circle style="fill:#E61673;" cx="93.521" cy="22.01" r="6.72"/>
	<path style="fill:#E61673;" d="M110.641,83.43h-7.79c-0.21,0-0.36,0.16-0.36,0.36v26.25c0,2.19-1.77,3.96-3.96,3.96
		c-1.09,0-2.09-0.44-2.8-1.16c-0.72-0.71-1.16-1.71-1.16-2.8V84.47c0-0.58-0.47-1.04-1.04-1.04s-1.04,0.47-1.04,1.04v25.57
		c0,2.19-1.77,3.96-3.96,3.96c-1.09,0-2.09-0.44-2.8-1.16c-0.72-0.71-1.16-1.71-1.16-2.8V83.79c0-0.21-0.16-0.36-0.36-0.36h-7.79
		c-0.74,0-1.24-0.75-0.96-1.43l10.43-25.15c0.18-0.44,0.28-0.92,0.28-1.4V41.66c0-0.28-0.22-0.5-0.5-0.5s-0.5,0.22-0.5,0.5v13.55
		c0,0.38-0.07,0.75-0.21,1.09l-2.7,6.52l-1.26,3.05c-0.6,1.45-2.27,2.14-3.72,1.54c-1.1-0.45-1.76-1.52-1.76-2.63
		c0-0.36,0.06-0.74,0.21-1.09l3.53-8.52c0.14-0.34,0.21-0.71,0.21-1.09V39.15c0-4.83,3.91-8.74,8.74-8.74h0.53
		c1.22,1.24,2.92,2.02,4.8,2.02s3.58-0.77,4.8-2.02h0.53c4.83,0,8.74,3.91,8.74,8.74v14.93c0,0.38,0.07,0.74,0.21,1.09l3.53,8.53
		c0.67,1.64-0.28,3.53-2.11,3.9c-1.34,0.26-2.66-0.53-3.19-1.79l-1.11-2.69l-2.81-6.79c-0.14-0.34-0.21-0.71-0.21-1.09V41.67
		c0-0.25-0.17-0.45-0.4-0.5c-0.03,0-0.07,0-0.1,0s-0.07,0-0.1,0c-0.24,0.05-0.4,0.25-0.4,0.5v13.79c0,0.48,0.09,0.96,0.28,1.4
		l10.43,25.15c0.28,0.68-0.22,1.43-0.96,1.43L110.641,83.43z"/>
</g>
<path style="fill:#FFFFFF;" d="M62.941,14L62.941,14c1.491,0,2.7,1.209,2.7,2.7v94.6c0,1.491-1.209,2.7-2.7,2.7l0,0
	c-1.491,0-2.7-1.209-2.7-2.7V16.7C60.241,15.209,61.45,14,62.941,14z"/>
</svg>
